# xmcd CD database file
#
# Track frame offsets:
#	150
#	11800
#	24535
#	39157
#	49654
#	63555
#	74133
#	87624
#	99292
#	112174
#
# Disc length: 1652 seconds
#
# Revision: 0
# Processed by: cddbd v1.5.2PL0 Copyright (c) Steve Scherf et al.
# Submitted via: CDex 1.70beta2
#
DISCID=8a06720a
DTITLE=Davidson, Gerald - Cdn. - Kitchner, ON - If I Ever Need A Lady
DYEAR=1900
DGENRE=Country
TTITLE0=Got No Reason Now For Going Home
TTITLE1=If I Ever Need A Lady
TTITLE2=One and One and One
TTITLE3=Bad Bad Dream
TTITLE4=Borrowed Angel
TTITLE5=Cinderella
TTITLE6=Honky TTonk Prescription
TTITLE7=I Wonder Who's Holding You Now
TTITLE8=Right Between the Lies
TTITLE9=I Don't Think She'd Really Mind At All
EXTD=
EXTT0=
EXTT1=
EXTT2=
EXTT3=
EXTT4=
EXTT5=
EXTT6=
EXTT7=
EXTT8=
EXTT9=
PLAYORDER=
